<mxfile host="app.diagrams.net" agent="Mozilla/5.0 (Windows NT 10.0; Win64; x64; rv:128.0) Gecko/20100101 Firefox/128.0" version="28.0.9">
  <diagram id="LXAsUgi6Snju0PjHf5B1" name="Page-1">
    <mxGraphModel dx="1382" dy="831" grid="1" gridSize="10" guides="1" tooltips="1" connect="1" arrows="1" fold="1" page="1" pageScale="1" pageWidth="850" pageHeight="1100" math="1" shadow="0">
      <root>
        <mxCell id="0" />
        <mxCell id="1" parent="0" />
        <mxCell id="34bSZ3mDRzLXYVs9py3f-1" value="" style="pointerEvents=1;verticalLabelPosition=bottom;shadow=0;dashed=0;align=center;html=1;verticalAlign=top;shape=mxgraph.electrical.resistors.resistor_2;direction=south;strokeWidth=3;flipV=1;container=0;" parent="1" vertex="1">
          <mxGeometry x="470" y="427" width="23" height="111" as="geometry" />
        </mxCell>
        <mxCell id="34bSZ3mDRzLXYVs9py3f-2" value="" style="pointerEvents=1;verticalLabelPosition=bottom;shadow=0;dashed=0;align=center;html=1;verticalAlign=top;shape=mxgraph.electrical.inductors.inductor_5;strokeWidth=3;container=0;rotation=90;" parent="1" vertex="1">
          <mxGeometry x="416" y="589" width="140" height="30" as="geometry" />
        </mxCell>
        <mxCell id="34bSZ3mDRzLXYVs9py3f-3" style="edgeStyle=orthogonalEdgeStyle;rounded=0;orthogonalLoop=1;jettySize=auto;html=1;exitX=0;exitY=0.5;exitDx=0;exitDy=0;exitPerimeter=0;entryX=0;entryY=0.645;entryDx=0;entryDy=0;entryPerimeter=0;endArrow=none;endFill=0;strokeWidth=3;" parent="1" source="34bSZ3mDRzLXYVs9py3f-1" edge="1">
          <mxGeometry relative="1" as="geometry">
            <mxPoint x="481.64999999999986" y="561" as="targetPoint" />
          </mxGeometry>
        </mxCell>
        <mxCell id="34bSZ3mDRzLXYVs9py3f-4" value="" style="pointerEvents=1;verticalLabelPosition=bottom;shadow=0;dashed=0;align=center;html=1;verticalAlign=top;shape=mxgraph.electrical.signal_sources.source;aspect=fixed;points=[[0.5,0,0],[1,0.5,0],[0.5,1,0],[0,0.5,0]];elSignalType=ac;strokeWidth=3;" parent="1" vertex="1">
          <mxGeometry x="140" y="497.5" width="81" height="81" as="geometry" />
        </mxCell>
        <mxCell id="34bSZ3mDRzLXYVs9py3f-6" style="edgeStyle=orthogonalEdgeStyle;rounded=0;orthogonalLoop=1;jettySize=auto;html=1;entryX=1;entryY=0.645;entryDx=0;entryDy=0;entryPerimeter=0;endArrow=none;endFill=0;strokeWidth=3;" parent="1" source="34bSZ3mDRzLXYVs9py3f-4" target="34bSZ3mDRzLXYVs9py3f-2" edge="1">
          <mxGeometry relative="1" as="geometry">
            <Array as="points">
              <mxPoint x="181" y="680" />
              <mxPoint x="482" y="680" />
            </Array>
          </mxGeometry>
        </mxCell>
        <mxCell id="34bSZ3mDRzLXYVs9py3f-9" style="edgeStyle=orthogonalEdgeStyle;rounded=0;orthogonalLoop=1;jettySize=auto;html=1;exitX=1;exitY=0.5;exitDx=0;exitDy=0;exitPerimeter=0;endArrow=oval;endFill=1;strokeWidth=3;" parent="1" source="34bSZ3mDRzLXYVs9py3f-7" edge="1">
          <mxGeometry relative="1" as="geometry">
            <mxPoint x="330" y="680" as="targetPoint" />
          </mxGeometry>
        </mxCell>
        <mxCell id="34bSZ3mDRzLXYVs9py3f-24" style="edgeStyle=orthogonalEdgeStyle;rounded=0;orthogonalLoop=1;jettySize=auto;html=1;exitX=0;exitY=0.5;exitDx=0;exitDy=0;exitPerimeter=0;strokeWidth=3;endArrow=oval;endFill=1;" parent="1" source="34bSZ3mDRzLXYVs9py3f-7" edge="1">
          <mxGeometry relative="1" as="geometry">
            <mxPoint x="330" y="420" as="targetPoint" />
          </mxGeometry>
        </mxCell>
        <mxCell id="34bSZ3mDRzLXYVs9py3f-7" value="" style="pointerEvents=1;verticalLabelPosition=bottom;shadow=0;dashed=0;align=center;html=1;verticalAlign=top;shape=mxgraph.electrical.capacitors.capacitor_1;rotation=90;strokeWidth=3;" parent="1" vertex="1">
          <mxGeometry x="280" y="511" width="100" height="60" as="geometry" />
        </mxCell>
        <mxCell id="34bSZ3mDRzLXYVs9py3f-10" value="" style="endArrow=classic;html=1;rounded=0;" parent="1" edge="1">
          <mxGeometry width="50" height="50" relative="1" as="geometry">
            <mxPoint x="230" y="410" as="sourcePoint" />
            <mxPoint x="280" y="410" as="targetPoint" />
          </mxGeometry>
        </mxCell>
        <mxCell id="34bSZ3mDRzLXYVs9py3f-11" value="" style="endArrow=classic;html=1;rounded=0;" parent="1" edge="1">
          <mxGeometry width="50" height="50" relative="1" as="geometry">
            <mxPoint x="342" y="440" as="sourcePoint" />
            <mxPoint x="342" y="490" as="targetPoint" />
          </mxGeometry>
        </mxCell>
        <mxCell id="34bSZ3mDRzLXYVs9py3f-12" value="" style="endArrow=classic;html=1;rounded=0;" parent="1" edge="1">
          <mxGeometry width="50" height="50" relative="1" as="geometry">
            <mxPoint x="349" y="410" as="sourcePoint" />
            <mxPoint x="399" y="410" as="targetPoint" />
          </mxGeometry>
        </mxCell>
        <mxCell id="34bSZ3mDRzLXYVs9py3f-14" value="&lt;font style=&quot;font-size: 16px;&quot;&gt;$$\overline{I}_i$$&lt;/font&gt;" style="text;html=1;strokeColor=none;fillColor=none;align=center;verticalAlign=middle;whiteSpace=wrap;rounded=0;fontSize=16;" parent="1" vertex="1">
          <mxGeometry x="230" y="380" width="60" height="30" as="geometry" />
        </mxCell>
        <mxCell id="34bSZ3mDRzLXYVs9py3f-15" value="&lt;font style=&quot;font-size: 16px;&quot;&gt;$$\overline{U}$$&lt;/font&gt;" style="text;html=1;strokeColor=none;fillColor=none;align=center;verticalAlign=middle;whiteSpace=wrap;rounded=0;fontSize=16;" parent="1" vertex="1">
          <mxGeometry x="93" y="524.5" width="60" height="30" as="geometry" />
        </mxCell>
        <mxCell id="34bSZ3mDRzLXYVs9py3f-16" value="&lt;font style=&quot;font-size: 16px;&quot;&gt;$$\overline{I}_c$$&lt;/font&gt;" style="text;html=1;strokeColor=none;fillColor=none;align=center;verticalAlign=middle;whiteSpace=wrap;rounded=0;fontSize=16;" parent="1" vertex="1">
          <mxGeometry x="330" y="450" width="60" height="30" as="geometry" />
        </mxCell>
        <mxCell id="34bSZ3mDRzLXYVs9py3f-17" value="&lt;font style=&quot;font-size: 16px;&quot;&gt;$$\overline{I}_{rl}$$&lt;/font&gt;" style="text;html=1;strokeColor=none;fillColor=none;align=center;verticalAlign=middle;whiteSpace=wrap;rounded=0;fontSize=16;" parent="1" vertex="1">
          <mxGeometry x="340" y="380" width="60" height="30" as="geometry" />
        </mxCell>
        <mxCell id="34bSZ3mDRzLXYVs9py3f-18" value="&lt;font style=&quot;font-size: 16px;&quot;&gt;$$R$$&lt;/font&gt;" style="text;html=1;strokeColor=none;fillColor=none;align=center;verticalAlign=middle;whiteSpace=wrap;rounded=0;fontSize=16;" parent="1" vertex="1">
          <mxGeometry x="488" y="467.5" width="60" height="30" as="geometry" />
        </mxCell>
        <mxCell id="34bSZ3mDRzLXYVs9py3f-19" value="&lt;font style=&quot;font-size: 16px;&quot;&gt;$$L$$&lt;/font&gt;" style="text;html=1;strokeColor=none;fillColor=none;align=center;verticalAlign=middle;whiteSpace=wrap;rounded=0;fontSize=16;" parent="1" vertex="1">
          <mxGeometry x="490" y="591" width="60" height="30" as="geometry" />
        </mxCell>
        <mxCell id="34bSZ3mDRzLXYVs9py3f-20" value="&lt;font style=&quot;font-size: 16px;&quot;&gt;$$C$$&lt;/font&gt;" style="text;html=1;strokeColor=none;fillColor=none;align=center;verticalAlign=middle;whiteSpace=wrap;rounded=0;fontSize=16;" parent="1" vertex="1">
          <mxGeometry x="356" y="526" width="60" height="30" as="geometry" />
        </mxCell>
        <mxCell id="34bSZ3mDRzLXYVs9py3f-25" style="edgeStyle=orthogonalEdgeStyle;rounded=0;orthogonalLoop=1;jettySize=auto;html=1;exitX=0.5;exitY=0;exitDx=0;exitDy=0;exitPerimeter=0;entryX=1;entryY=0.5;entryDx=0;entryDy=0;entryPerimeter=0;endArrow=none;endFill=0;strokeWidth=3;" parent="1" source="34bSZ3mDRzLXYVs9py3f-4" target="34bSZ3mDRzLXYVs9py3f-1" edge="1">
          <mxGeometry relative="1" as="geometry">
            <Array as="points">
              <mxPoint x="181" y="420" />
              <mxPoint x="481" y="420" />
            </Array>
          </mxGeometry>
        </mxCell>
      </root>
    </mxGraphModel>
  </diagram>
</mxfile>
